# xmcd
#
# Track frame offsets: 
#        150
#        22189
#        33381
#        48954
#
# Disc length: 788 seconds
#
# Revision: 0
# Processed by: cddbd v1.5.2PL0 Copyright (c) Steve Scherf et al.
# Submitted via: ExactAudioCopy v0.99pb3
#
DISCID=2c031204
DTITLE=Stars Of Aviation - Snow On Snow
DYEAR=2003
DGENRE=Kitchen
TTITLE0=Snow On Snow
TTITLE1=Illumined
TTITLE2=Stars Of Aviation Are Singing About The Summer, But Is It Goin
TTITLE2=g To Be Sunny, Carol?
TTITLE3=Love Is Only In Your Mind
EXTD=
EXTT0=
EXTT1=
EXTT2=
EXTT3=
PLAYORDER=
